<!-- SVG Sprite -->
<svg width="0" height="0" class="hidden">
  <symbol xmlns="http://www.w3.org/2000/svg" viewBox="0 0 24 24" id="sun">
    <path d="M11.7809 19.4165C12.374 19.4165 12.863 19.8656 12.9256 20.4425L12.9323 20.568V22.4097C12.9323 23.0463 12.4169 23.5617 11.7809 23.5617C11.1873 23.5617 10.6987 23.1127 10.6361 22.5353L10.6294 22.4097V20.568C10.6294 19.932 11.1449 19.4165 11.7809 19.4165ZM6.38139 17.1809C6.79901 17.5975 6.82884 18.2562 6.47088 18.7078L6.38139 18.8082L5.07861 20.1115C4.62939 20.5607 3.9 20.5607 3.45026 20.1115C3.03265 19.6943 3.00327 19.0352 3.36087 18.5835L3.45026 18.4831L4.75304 17.1809C5.20278 16.7306 5.93165 16.7306 6.38139 17.1809ZM18.8082 17.1809L20.111 18.4837C20.5607 18.9323 20.5607 19.6623 20.111 20.1115C19.6612 20.5607 18.9323 20.5607 18.4826 20.1115L17.1798 18.8087C16.7301 18.359 16.7301 17.6301 17.1798 17.1809C17.6296 16.7317 18.359 16.7317 18.8082 17.1809ZM11.7809 5.87948C15.0344 5.87948 17.6823 8.52678 17.6823 11.7814C17.6823 15.036 15.0344 17.6833 11.7809 17.6833C8.52678 17.6833 5.87948 15.0355 5.87948 11.7814C5.87948 8.5273 8.52678 5.87948 11.7809 5.87948ZM22.4103 10.6294C23.0463 10.6294 23.5617 11.1449 23.5617 11.7809C23.5617 12.4169 23.0463 12.9318 22.4103 12.9318H20.568C19.932 12.9318 19.4165 12.4169 19.4165 11.7809C19.4165 11.1449 19.932 10.6294 20.568 10.6294H22.4103ZM2.99322 10.6294C3.62922 10.6294 4.1447 11.1449 4.1447 11.7809C4.1447 12.3745 3.69566 12.8626 3.11912 12.9251L2.99374 12.9318H1.15148C0.515478 12.9318 0 12.4169 0 11.7809C0 11.1873 0.449039 10.6987 1.026 10.6361L1.15148 10.6294H2.99322ZM4.97817 3.36129L5.07861 3.45078L6.38139 4.75304C6.83113 5.20278 6.83113 5.93165 6.38139 6.38139C5.96378 6.79949 5.30548 6.82936 4.85349 6.47098L4.75304 6.38139L3.45026 5.07861C3.00052 4.62939 3.00052 3.9 3.45026 3.45078C3.86788 3.03317 4.52617 3.00334 4.97817 3.36129ZM20.111 3.45026C20.5607 3.9 20.5607 4.62939 20.111 5.07861L18.8082 6.38139C18.359 6.83113 17.6301 6.83113 17.1798 6.38139C16.7306 5.93165 16.7306 5.20278 17.1798 4.75304L18.4826 3.45026C18.9318 3.00104 19.6612 3.00104 20.111 3.45026ZM11.7809 0C12.4169 0 12.9323 0.515478 12.9323 1.15148V2.99374C12.9323 3.62922 12.4163 4.1447 11.7809 4.1447C11.1449 4.1447 10.6294 3.62922 10.6294 2.99374V1.15148C10.6294 0.515478 11.1449 0 11.7809 0Z"></path>
  </symbol>
  <symbol xmlns="http://www.w3.org/2000/svg" viewBox="0 0 14 9" id="arrow-down">
    <path d="M1 1L7 7L13 1" stroke-width="2"></path>
  </symbol>
  <symbol xmlns="http://www.w3.org/2000/svg" viewBox="0 0 23 24" id="moon">
    <path d="M22.1891 17.3664C21.9747 17.1024 21.6147 17.0048 21.2979 17.1184C20.4099 17.4368 19.4467 17.6 18.4323 17.6C13.5795 17.6 9.6323 13.6512 9.6323 8.8C9.6323 5.88 11.0739 3.1616 13.4883 1.5264C13.7619 1.3408 13.8931 1.0064 13.8195 0.6848C13.7459 0.3632 13.4819 0.12 13.1539 0.072C12.7795 0.0176 12.4067 0 12.0323 0C5.4147 0 0.0323029 5.3824 0.0323029 12C0.0323029 18.6176 5.4147 24 12.0323 24C16.2323 24 20.0531 21.8656 22.2499 18.2912C22.4275 18.0016 22.4019 17.632 22.1891 17.3664Z"></path>
  </symbol>
  <symbol xmlns="http://www.w3.org/2000/svg" viewBox="0 0 18 18" id="quote">
    <path opacity="0.5" fill-rule="evenodd" clip-rule="evenodd" d="M13 4.76457L10.6884 6.97749C10.6287 7.03702 10.6107 7.12666 10.6429 7.20457C10.6752 7.28248 10.7511 7.3333 10.8354 7.33332H17.3334V1.10416C17.3328 1.02008 17.2818 0.944558 17.204 0.912674C17.1262 0.88079 17.0369 0.898794 16.9775 0.958322L14.8046 3.03707C12.7334 1.0125 9.75831 0.210711 6.9502 0.920285C4.14209 1.62986 1.90505 3.74867 1.04419 6.51416L3.43085 7.25999C4.02898 5.3392 5.57591 3.863 7.52257 3.35536C9.46924 2.84771 11.5401 3.38049 13 4.76457ZM7.38031 10.7951C7.34804 10.7174 7.27213 10.6667 7.18794 10.6667H0.666687V16.8154C0.666705 16.8997 0.717527 16.9757 0.795437 17.0079C0.873346 17.0401 0.962985 17.0222 1.02252 16.9625L3.17085 14.9408C5.23884 16.977 8.2182 17.7889 11.0333 17.0833C13.8484 16.3778 16.0927 14.2567 16.9559 11.4858L14.5692 10.74C13.9702 12.6626 12.4208 14.1396 10.4717 14.6459C8.52258 15.1522 6.45022 14.616 4.99127 13.2279L7.33544 11.0221C7.39488 10.9624 7.41259 10.8729 7.38031 10.7951Z"></path>
  </symbol>
</svg>
